<?xml version="1.0"?>
<svg xmlns="http://www.w3.org/2000/svg" version="1" viewBox="0 0 24 24" enable-background="new 0 0 24 24">
    <path d="M 10 2 C 8.3545455 2 7 3.3545455 7 5 L 7 6 L 9 6 L 9 5 C 9 4.4454545 9.4454545 4 10 4 L 14 4 C 14.554545 4 15 4.4454545 15 5 L 15 6 L 17 6 L 17 5 C 17 3.3545455 15.645455 2 14 2 L 10 2 z M 4 7 C 2.9 7 2 7.9 2 9 L 2 19 C 2 20.1 2.9 21 4 21 L 20 21 C 21.1 21 22 20.1 22 19 L 22 9 C 22 7.9 21.1 7 20 7 L 4 7 z M 12 9 C 14.8 9 17 11.2 17 14 C 17 16.8 14.8 19 12 19 C 9.2 19 7 16.8 7 14 C 7 11.2 9.2 9 12 9 z M 11 11 L 11 13 L 9 13 L 9 15 L 11 15 L 11 17 L 13 17 L 13 15 L 15 15 L 15 13 L 13 13 L 13 11 L 11 11 z"/>
</svg>
